# xmcd CD database file
#
# Track frame offsets:
#	150
#	18088
#	34755
#	54847
#	72513
#	91340
#	105357
#	120382
#	134387
#	150570
#	165826
#
# Disc length: 2414 seconds
#
# Revision: 0
# Processed by: cddbd v1.5.2PL0 Copyright (c) Steve Scherf et al.
# Submitted via: CDex 1.70beta2
#
DISCID=77096c0b
DTITLE=Emerson Drive - Roll
DYEAR=2012
DGENRE=Country
TTITLE0=Let It Roll
TTITLE1=We Are This Town
TTITLE2=Love Hangover
TTITLE3=She Always Gets What She Wants
TTITLE4=Never A Good Day For Goodbye
TTITLE5=With You
TTITLE6=We Fit Together
TTITLE7=This Is Our Time
TTITLE8=Alone Tonight
TTITLE9=She's My Kind Of Crazy
TTITLE10=Show Us Whatcha Got
EXTD=YEAR: 2012
EXTT0=
EXTT1=
EXTT2=
EXTT3=
EXTT4=
EXTT5=
EXTT6=
EXTT7=
EXTT8=
EXTT9=
EXTT10=
PLAYORDER=
